<svg xmlns="http://www.w3.org/2000/svg" version="1.1" xmlns:xlink="http://www.w3.org/1999/xlink" xmlns:svgjs="http://svgjs.dev/svgjs" width="1500" height="397" viewBox="0 0 1500 397"><g transform="matrix(1,0,0,1,-0.9090909090909918,4.635733433416988)"><svg viewBox="0 0 396 105" data-background-color="#00684a" preserveAspectRatio="xMidYMid meet" height="397" width="1500" xmlns="http://www.w3.org/2000/svg" xmlns:xlink="http://www.w3.org/1999/xlink"><g id="tight-bounds" transform="matrix(1,0,0,1,0.2400000000000091,-0.2212851272185219)"><svg viewBox="0 0 395.52 105.44257025443703" height="105.44257025443703" width="395.52"><g><svg viewBox="0 0 580.4282254734655 154.7376717792883" height="105.44257025443703" width="395.52"><g transform="matrix(1,0,0,1,0,21.385597185125953)"><svg viewBox="0 0 395.52 111.96647740903639" height="111.96647740903639" width="395.52"><g id="textblocktransform"><svg viewBox="0 0 395.52 111.96647740903639" height="111.96647740903639" width="395.52" id="textblock"><g><svg viewBox="0 0 395.52 111.96647740903639" height="111.96647740903639" width="395.52"><g transform="matrix(1,0,0,1,0,0)"><svg width="395.52" viewBox="4.05 -34.95 125.04 35.400000000000006" height="111.96647740903639" data-palette-color="#ffffff"><g class="wordmark-text-0" data-fill-palette-color="primary" id="text-0"><path d="M10.7-34.55L10.7-34.55Q13.2-34.55 15.73-34.55 18.25-34.55 20.73-34.48 23.2-34.4 25.5-34.25L25.5-34.25 25.3-30.8 11.45-30.8Q9.9-30.8 9.18-30.03 8.45-29.25 8.45-27.5L8.45-27.5 8.45-7Q8.45-5.25 9.18-4.45 9.9-3.65 11.45-3.65L11.45-3.65 25.3-3.65 25.5-0.25Q23.2-0.1 20.73-0.05 18.25 0 15.73 0.03 13.2 0.05 10.7 0.05L10.7 0.05Q7.65 0.05 5.88-1.58 4.1-3.2 4.05-5.95L4.05-5.95 4.05-28.55Q4.1-31.35 5.88-32.95 7.65-34.55 10.7-34.55ZM4.95-16.45L4.95-20 23.35-20 23.35-16.45 4.95-16.45ZM44.65-34.95L44.65-34.95Q48.35-34.95 50.92-34.05 53.5-33.15 55.07-31.1 56.65-29.05 57.37-25.65 58.1-22.25 58.1-17.25L58.1-17.25Q58.1-12.25 57.37-8.85 56.65-5.45 55.07-3.4 53.5-1.35 50.92-0.45 48.35 0.45 44.65 0.45L44.65 0.45Q41.1 0.45 38.07 0.33 35.05 0.2 32.35 0L32.35 0 34.25-3.6Q36.35-3.55 38.92-3.48 41.5-3.4 44.65-3.4L44.65-3.4Q47.95-3.4 49.9-4.67 51.85-5.95 52.67-8.97 53.5-12 53.5-17.25L53.5-17.25Q53.5-22.5 52.67-25.53 51.85-28.55 49.9-29.85 47.95-31.15 44.65-31.15L44.65-31.15Q41.55-31.15 39.07-31.1 36.6-31.05 34.25-31L34.25-31 32.35-34.5Q35.05-34.7 38.07-34.83 41.1-34.95 44.65-34.95ZM32.35-34.5L36.75-34.5 36.75 0 32.35 0 32.35-34.5ZM65.55-34.5L69.95-34.5 69.95 0 65.55 0 65.55-34.5ZM85.19-34.55L85.19-34.55Q87.59-34.55 90.04-34.52 92.49-34.5 94.89-34.45 97.29-34.4 99.49-34.2L99.49-34.2 99.24-30.8 86.29-30.8Q84.54-30.8 83.74-30.03 82.94-29.25 82.94-27.5L82.94-27.5 82.94 0 78.54 0 78.54-28.35Q78.54-31.3 80.34-32.93 82.14-34.55 85.19-34.55ZM79.39-15.95L79.39-19.5 97.34-19.5 97.34-15.95 79.39-15.95ZM124.44-34.5L129.09-34.5 117.44-11.7 113.49-11.7 101.79-34.5 106.49-34.5 113.74-19.95Q114.19-19 114.57-18 114.94-17 115.29-16.05L115.29-16.05 115.64-16.05Q115.99-17 116.39-18 116.79-19 117.19-19.9L117.19-19.9 124.44-34.5ZM113.24-14.8L117.64-14.8 117.64 0 113.24 0 113.24-14.8Z" fill="#ffffff" data-fill-palette-color="primary"></path></g></svg></g></svg></g></svg></g></svg></g><g transform="matrix(1,0,0,1,421.95259812081565,0)"><svg viewBox="0 0 158.47562735264995 154.7376717792883" height="154.7376717792883" width="158.47562735264995"><g><svg xmlns="http://www.w3.org/2000/svg" xmlns:xlink="http://www.w3.org/1999/xlink" version="1.1" x="0" y="0" viewBox="11.017823632605122 11.461749422187646 37.96369815853941 37.06825057781236" style="enable-background:new 0 0 60 60;" xml:space="preserve" height="154.7376717792883" width="158.47562735264995" class="icon-icon-0" data-fill-palette-color="accent" id="icon-0"><path d="M48.85 34.1L35.82 11.92A0.945 0.945 0 0 0 34.2 11.92L30 19.08 25.79 11.93A0.945 0.945 0 0 0 24.17 11.93L11.15 34.1C10.93 34.47 10.99 34.93 11.29 35.23L24.32 48.26C24.5 48.44 24.74 48.53 24.98 48.53S25.46 48.44 25.64 48.26L30 43.91 34.35 48.26C34.53 48.44 34.77 48.53 35.01 48.53S35.49 48.44 35.67 48.26L48.7 35.23C49.01 34.93 49.07 34.46 48.85 34.1M24.99 46.28L13.13 34.42 24.99 14.24 28.92 20.92 21.17 34.1C20.95 34.47 21.01 34.93 21.31 35.23L28.67 42.59zM30 22.77L36.85 34.42 30 41.27 23.15 34.42zM35.01 46.28L31.32 42.59 38.68 35.23C38.98 34.93 39.04 34.46 38.82 34.1L31.08 20.93 35.01 14.25 46.87 34.43z" fill="#ffffff" data-fill-palette-color="accent"></path></svg></g></svg></g></svg></g><defs></defs></svg><rect width="395.52" height="105.44257025443703" fill="none" stroke="none" visibility="hidden"></rect></g></svg></g></svg>